<?xml version="1.0" encoding="UTF-8"?>
<!-- Generated by Pixelmator Pro 3.7 -->
<svg width="1000" height="150" viewBox="0 0 1000 150" xmlns="http://www.w3.org/2000/svg">
    <path id="GouGO" fill="#000000" fill-rule="evenodd" stroke="none" d="M 306.960052 102.360001 L 306.960052 47.639999 L 321.600067 33 L 363.120056 33 L 377.760071 47.639999 L 377.760071 102.360001 L 363.120056 117 L 321.600067 117 Z M 327.840057 50.519997 L 327.840057 99.480003 L 356.880066 99.480003 L 356.880066 50.519997 Z M 229.680023 102.360001 L 229.680023 47.639999 L 244.320023 33 L 291.120056 33 L 291.120056 50.519997 L 249.840027 50.519997 L 249.840027 99.480003 L 278.353149 99.480003 L 278.353149 82.224373 L 260.880035 82.224373 L 260.880035 66.239998 L 296.160034 66.239998 L 296.160034 117 L 244.320023 117 Z M 218.52002 49.800003 L 218.52002 117 L 170.040039 117 L 155.64003 102.599998 L 155.64003 49.800003 L 175.800034 49.800003 L 175.800034 99.480003 L 198.360016 99.480003 L 198.360016 49.800003 Z M 82.680031 103.32 L 82.680031 63.480003 L 96.360031 49.800003 L 131.40004 49.800003 L 145.080032 63.480003 L 145.080032 103.32 L 131.40004 117 L 96.360031 117 Z M 102.840034 100.919998 L 124.920029 100.919998 L 124.920029 65.880005 L 102.840034 65.880005 Z M 6 102.360001 L 6 47.639999 L 20.640001 33 L 67.439995 33 L 67.439995 50.519997 L 26.16 50.519997 L 26.16 99.480003 L 54.673122 99.480003 L 54.673122 82.224373 L 37.200001 82.224373 L 37.200001 66.239998 L 72.480003 66.239998 L 72.480003 117 L 20.640001 117 Z"/>
    <path id="path1" fill="#000000" fill-rule="evenodd" stroke="none" d="M 942.375061 91.690475 L 942.375061 71.452377 L 977.386963 70.440475 L 977.386963 61.333336 L 944.398865 61.333336 L 944.398865 47.166664 L 982.244141 47.166664 L 994.387024 59.309525 L 994.387024 103.833328 L 954.517944 103.833328 Z M 959.375061 80.761902 L 959.375061 90.273804 L 977.386963 90.273804 L 977.386963 78.738091 Z M 880.648865 103.833328 L 880.648865 47.166664 L 897.648865 47.166664 L 897.648865 67.303574 L 907.869141 67.303574 L 918.392944 47.166664 L 937.416748 47.166664 L 922.136963 73.375 L 938.125061 103.833328 L 918.898865 103.833328 L 908.678589 81.470238 L 897.648865 81.470238 L 897.648865 103.833328 Z M 818.922729 47.166664 L 818.922729 103.833328 L 863.851318 103.833328 L 872.55365 95.130951 L 872.55365 80.478889 L 864.822083 74.042221 L 870.529846 69.509209 L 870.529846 55.869049 L 861.827515 47.166664 Z M 835.619141 69.691032 L 835.619141 59.511902 L 854.136963 59.511902 L 854.136963 69.691032 Z M 835.619141 91.488098 L 835.619141 80.821991 L 855.553589 80.821991 L 855.553589 91.488098 Z M 757.196533 91.690475 L 757.196533 71.452377 L 792.208374 70.440475 L 792.208374 61.333336 L 759.220337 61.333336 L 759.220337 47.166664 L 797.065552 47.166664 L 809.208435 59.309525 L 809.208435 103.833328 L 769.339355 103.833328 Z M 774.196472 80.761902 L 774.196472 90.273804 L 792.208374 90.273804 L 792.208374 78.738091 Z M 733.517883 103.833328 L 733.517883 61.940475 L 751.327393 61.940475 L 751.327393 47.166664 L 698.708374 47.166664 L 698.708374 61.940475 L 716.517944 61.940475 L 716.517944 103.833328 Z M 647.101196 92.297623 L 647.101196 58.702385 L 658.636902 47.166664 L 694.255981 47.166664 L 694.255981 62.547615 L 664.101196 62.547615 L 664.101196 88.452377 L 694.255981 88.452377 L 694.255981 103.833328 L 658.636902 103.833328 Z M 586.386963 92.297623 L 586.386963 58.702385 L 597.922607 47.166664 L 627.470215 47.166664 L 639.005981 58.702385 L 639.005981 92.297623 L 627.470215 103.833328 L 597.922607 103.833328 Z M 603.386902 90.273804 L 622.00592 90.273804 L 622.00592 60.726189 L 603.386902 60.726189 Z M 511 118 L 511 89.059525 L 517.517273 89.059525 L 530.589844 33 L 574.708923 33 L 574.708923 89.059525 L 580.821472 89.059525 L 580.821472 118 L 567.464294 118 L 567.464294 103.833328 L 524.357178 103.833328 L 524.357178 118 Z M 534.738647 90.273804 L 557.710449 90.273804 L 557.710449 46.559525 L 543.542236 46.559525 Z"/>
    <g id="Group-copy">
        <clipPath id="clipPath1">
            <path d="M 443.824851 33 L 443.824851 33 C 465.92923 33 483.848354 50.919208 483.848354 73.023669 L 483.848354 77.976331 C 483.848354 100.080797 465.92923 118 443.824851 118 L 443.824851 118 C 421.720472 118 403.801306 100.080797 403.801306 77.976331 L 403.801306 73.023669 C 403.801306 50.919208 421.720472 33 443.824851 33 Z"/>
        </clipPath>
        <g id="Group" clip-path="url(#clipPath1)">
            <path id="Path" fill="#e6e6e6" stroke="none" d="M 443.82486 33 L 443.82486 33 C 465.92923 33 483.848358 50.919205 483.848358 73.023666 L 483.848358 77.976334 C 483.848358 100.080795 465.92923 118 443.82486 118 L 443.82486 118 C 421.720459 118 403.8013 100.080795 403.8013 77.976334 L 403.8013 73.023666 C 403.8013 50.919205 421.720459 33 443.82486 33 Z"/>
            <g id="g1">
                <clipPath id="clipPath2">
                    <path d="M 401 38.52486 L 471.041121 38.52486 L 471.041121 112.89986 L 401 112.89986 Z"/>
                </clipPath>
                <g id="g2" clip-path="url(#clipPath2)">
                    <path id="path2" fill="#ff7751" stroke="none" d="M 401 51.912361 L 436.019989 38.524857 L 471.040009 51.912361 L 471.040009 99.512497 L 436.019989 112.899719 L 401 99.512497 L 401 51.912361 Z"/>
                    <path id="path3" fill="#e13100" stroke="none" d="M 401 51.912643 L 436.019989 65.300003 L 436.019989 112.900002 L 401 99.512497 L 401 51.912643 Z"/>
                    <path id="path4" fill="#fc4714" stroke="none" d="M 471.040009 51.912643 L 436.019989 65.300003 L 436.019989 112.900002 L 471.040009 99.512497 L 471.040009 51.912643 Z"/>
                    <path id="path5" fill="#ffffff" stroke="none" d="M 467.186646 90.983597 C 459.66983 98.717751 447.608337 103.141716 439.873322 101.542297 L 439.873322 97.356049 C 447.452515 98.997971 459.613159 94.9888 467.186646 86.800186 L 467.186646 90.983597 Z M 451.668518 78.767677 L 449.186493 79.730728 L 449.186493 90.953285 L 442.97583 93.352264 L 442.97583 82.132271 L 440.490997 83.086815 L 446.081177 66.894882 L 451.668518 78.767677 Z M 466.569 73.009789 L 464.084167 73.972549 L 464.084167 85.192551 L 457.876343 87.59153 L 457.876343 76.368698 L 455.394348 77.328918 L 460.981659 61.136871 L 466.569 73.009789 Z"/>
                </g>
            </g>
        </g>
    </g>
</svg>
